<svg version="1.1" id="Layer_1" xmlns="http://www.w3.org/2000/svg" xmlns:xlink="http://www.w3.org/1999/xlink" x="0px" y="0px"
	 width="100%" viewBox="0 0 512 512" enable-background="new 0 0 512 512" xml:space="preserve">
<path fill="#000000" opacity="1.000000" stroke="none" 
	d="
M1.000000,141.000000 
	C1.000000,94.000000 1.000000,47.500000 1.000000,1.000000 
	C171.666672,1.000000 342.333344,1.000000 513.000000,1.000000 
	C513.000000,171.666672 513.000000,342.333344 513.000000,513.000000 
	C342.333344,513.000000 171.666672,513.000000 1.000000,513.000000 
	C1.000000,389.166656 1.000000,265.333344 1.000000,141.000000 
M111.970917,372.878784 
	C112.554840,376.082214 113.051582,379.304504 113.739944,382.485352 
	C115.427254,390.282166 117.202950,398.059845 118.189705,405.993530 
	C112.480667,408.574585 106.771622,411.155640 100.552048,413.946869 
	C94.662498,417.615326 88.772949,421.283783 82.174973,424.992828 
	C76.767685,429.958069 71.360405,434.923309 65.314743,440.153534 
	C63.527653,442.732178 61.740559,445.310822 59.313202,448.157104 
	C58.263821,450.104126 57.214443,452.051147 55.855377,454.666016 
	C54.530968,457.764709 53.206558,460.863434 51.186172,464.338226 
	C50.751045,467.213501 50.315918,470.088806 49.193783,473.333679 
	C49.184834,474.888519 49.175884,476.443390 49.015652,478.863220 
	C49.066082,480.907837 49.116512,482.952423 49.014553,485.917816 
	C49.014553,489.857422 49.014553,493.796997 49.014553,497.705688 
	C187.959457,497.705688 326.353424,497.705688 464.833069,497.705688 
	C464.833069,493.274689 464.833069,489.135895 464.979584,484.118225 
	C464.931183,481.744934 464.882782,479.371613 464.982208,476.218781 
	C464.599731,474.478638 464.217255,472.738495 463.975342,470.240540 
	C463.261078,468.159271 462.546814,466.078003 461.762756,463.266907 
	C460.214355,460.163940 458.665924,457.060944 457.004852,453.243530 
	C455.042480,450.482849 453.080109,447.722168 450.845184,444.325592 
	C445.600983,439.202789 440.356781,434.079987 434.812256,428.313538 
	C426.831635,423.602692 418.851044,418.891815 410.252228,413.810577 
	C404.859619,411.479004 399.466980,409.147400 394.399994,406.147797 
	C394.789093,404.731323 395.242401,403.328979 395.556885,401.896118 
	C397.669220,392.272308 399.752075,382.641998 402.228973,372.312744 
	C402.639679,370.577820 403.176361,368.861786 403.440277,367.104828 
	C404.945709,357.083405 406.386108,347.052246 408.041565,336.214447 
	C409.066895,327.904938 410.248230,319.611084 411.082245,311.282410 
	C412.458313,297.541107 413.609955,283.777344 414.959412,269.104523 
	C415.320312,259.373871 415.681763,249.643265 416.042023,239.912613 
	C416.645935,223.600662 417.249084,207.288681 417.947998,190.047638 
	C417.914276,179.693741 417.880554,169.339828 417.949341,158.104523 
	C417.247498,152.065750 416.545654,146.026993 415.949036,139.161850 
	C415.245087,135.437393 414.541138,131.712921 413.874390,127.202400 
	C411.863190,120.465355 409.851959,113.728310 407.895966,106.244347 
	C404.637512,99.153351 401.379059,92.062363 397.985046,84.256195 
	C386.168060,60.058041 367.481781,42.528229 343.998077,30.151217 
	C331.476807,23.551941 318.263367,18.358187 303.883392,16.781141 
	C292.128174,15.491950 280.469543,12.649572 268.709259,12.256242 
	C255.363998,11.809903 241.916260,12.905501 228.579956,14.086283 
	C210.534836,15.683979 193.320221,20.869692 176.970413,28.583006 
	C159.564728,36.794441 144.551392,48.455101 132.454727,63.340080 
	C126.075111,71.190224 121.351196,80.385925 115.327011,89.375534 
	C112.513535,96.238106 109.700058,103.100685 106.326073,110.425766 
	C104.272377,118.280853 102.218681,126.135933 99.775803,134.689072 
	C99.235580,138.456039 98.695351,142.223022 97.754280,146.721054 
	C97.220566,153.475052 96.686859,160.229065 96.044441,167.916763 
	C96.078850,179.936157 96.113266,191.955536 96.045380,204.831223 
	C96.360077,207.102432 96.868645,209.365936 96.959000,211.646042 
	C97.730026,231.103241 98.425148,250.563461 99.049583,270.883148 
	C100.030792,281.688416 100.883171,292.507324 102.028198,303.295197 
	C103.258568,314.887207 104.763702,326.450073 106.055695,338.863403 
	C106.373993,341.127136 106.617470,343.404358 107.023788,345.652191 
	C108.614517,354.452179 110.256676,363.242920 111.970917,372.878784 
z"/>
<path fill="#553A30" opacity="1.000000" stroke="none" 
	d="
M99.142990,270.022766 
	C98.425148,250.563461 97.730026,231.103241 96.959000,211.646042 
	C96.868645,209.365936 96.360077,207.102432 96.437263,204.305954 
	C97.459030,202.303726 98.333138,200.882202 98.682823,199.341644 
	C106.151352,166.438599 119.820923,136.516113 140.929932,110.035393 
	C154.910812,92.496735 171.769562,78.443146 191.434372,67.865021 
	C215.310394,55.021599 240.698883,48.781322 268.039581,50.903721 
	C284.637817,52.192215 300.516388,55.969597 315.566193,62.865730 
	C340.147583,74.129448 360.766846,90.482048 377.454071,111.866356 
	C393.603760,132.561859 405.241760,155.507812 413.137695,180.471146 
	C414.287537,184.106415 416.260468,187.481323 417.852539,190.976715 
	C417.249084,207.288681 416.645935,223.600662 416.042023,239.912613 
	C415.681763,249.643265 415.320312,259.373871 414.563843,269.649902 
	C413.122253,273.059296 411.687347,275.844879 411.092010,278.799683 
	C406.453705,301.819519 397.926025,323.272827 386.304352,343.664581 
	C376.362946,361.107971 362.748657,375.308044 348.470337,389.050598 
	C347.386536,390.093689 346.810547,391.664368 345.585541,393.017212 
	C339.779999,392.164642 334.387451,391.284668 328.669250,390.263428 
	C325.986206,387.887726 323.628815,385.653351 321.153931,383.122009 
	C317.342194,378.826202 313.647949,374.827301 310.161469,370.566589 
	C343.573456,350.778931 366.400269,322.664825 379.451813,286.546295 
	C382.611511,277.802185 385.745148,269.026337 384.601379,259.368805 
	C383.779938,252.432968 383.997009,245.351730 382.874878,238.478363 
	C380.172729,221.927078 377.136322,205.423752 373.848419,188.978333 
	C372.708710,183.277695 369.103210,178.958572 364.039307,175.683533 
	C358.315491,171.981720 352.886414,167.798920 347.498596,163.607513 
	C331.421051,151.100159 315.910370,137.990265 304.321686,120.940208 
	C302.308136,117.977730 300.534363,114.852287 298.626495,111.764305 
	C297.848206,112.247452 297.392609,112.464630 297.013306,112.775063 
	C257.894958,144.791061 213.225739,165.489365 164.276260,177.066147 
	C154.167511,179.456924 147.721146,185.018127 143.262909,193.712036 
	C136.196625,207.491867 132.605133,222.371353 130.070892,237.504776 
	C128.812866,245.017319 126.606529,252.922745 127.756668,260.186920 
	C131.745056,285.377350 141.800613,308.274414 157.058258,328.844910 
	C169.849548,346.090210 185.827835,359.694672 203.789474,371.057709 
	C199.103958,376.199066 194.675369,381.110962 189.999939,386.237244 
	C188.498123,387.643250 187.243149,388.834869 185.559845,389.977997 
	C179.466705,390.792908 173.801880,391.656372 168.005341,392.176941 
	C166.774384,390.594391 165.732315,389.297974 164.566330,388.124695 
	C158.379105,381.898621 151.768799,376.044312 146.022919,369.436981 
	C124.175797,344.314301 110.761307,315.002502 103.621468,282.623627 
	C102.668983,278.304199 100.661766,274.217346 99.142990,270.022766 
z"/>
<path fill="#91CBF9" opacity="1.000000" stroke="none" 
	d="
M464.833069,484.997101 
	C464.833069,489.135895 464.833069,493.274689 464.833069,497.705688 
	C326.353424,497.705688 187.959457,497.705688 49.014553,497.705688 
	C49.014553,493.796997 49.014553,489.857422 49.548752,485.458252 
	C117.762794,484.983856 185.442642,484.969025 253.534973,484.958069 
	C256.615936,484.614746 259.284393,484.267548 262.264008,484.203705 
	C264.544525,484.658051 266.513794,484.977722 268.483215,484.978455 
	C333.933167,485.003510 399.383118,484.998077 464.833069,484.997101 
z"/>
<path fill="#5C3F35" opacity="1.000000" stroke="none" 
	d="
M417.900269,190.512177 
	C416.260468,187.481323 414.287537,184.106415 413.137695,180.471146 
	C405.241760,155.507812 393.603760,132.561859 377.454071,111.866356 
	C360.766846,90.482048 340.147583,74.129448 315.566193,62.865730 
	C300.516388,55.969597 284.637817,52.192215 268.039581,50.903721 
	C240.698883,48.781322 215.310394,55.021599 191.434372,67.865021 
	C171.769562,78.443146 154.910812,92.496735 140.929932,110.035393 
	C119.820923,136.516113 106.151352,166.438599 98.682823,199.341644 
	C98.333138,200.882202 97.459030,202.303726 96.488411,203.877808 
	C96.113266,191.955536 96.078850,179.936157 96.427086,167.371887 
	C97.839478,165.171677 99.073235,163.607605 99.862137,161.844498 
	C102.645416,155.624100 104.973503,149.184082 108.017059,143.098862 
	C121.476593,116.188034 138.916687,92.469032 162.751556,73.593124 
	C188.561798,53.152851 217.676559,41.316776 250.414642,39.146561 
	C271.359436,37.758118 291.800293,41.304878 311.443329,48.975643 
	C339.165863,59.801533 362.210205,77.088654 381.173401,99.842819 
	C395.208221,116.683372 405.921204,135.596527 414.795227,155.595490 
	C415.381531,156.916840 416.810059,157.864471 417.846832,158.985931 
	C417.880554,169.339828 417.914276,179.693741 417.900269,190.512177 
z"/>
<path fill="#ADD8FB" opacity="1.000000" stroke="none" 
	d="
M457.117523,453.957977 
	C458.665924,457.060944 460.214355,460.163940 461.339661,463.632690 
	C324.571747,463.986389 188.226959,463.974274 51.882153,463.962128 
	C53.206558,460.863434 54.530968,457.764709 56.468376,454.332916 
	C120.671959,454.000275 184.262558,454.011017 247.853073,453.955292 
	C249.912033,453.953491 251.970398,453.273193 254.452972,452.930573 
	C256.575012,452.937714 258.273132,452.923462 260.277710,453.196289 
	C261.885162,453.655823 263.186096,453.978882 264.487122,453.979095 
	C328.697266,453.989502 392.907379,453.972198 457.117523,453.957977 
z"/>
<path fill="#A4D3FA" opacity="1.000000" stroke="none" 
	d="
M51.534164,464.150177 
	C188.226959,463.974274 324.571747,463.986389 461.374573,463.997620 
	C462.546814,466.078003 463.261078,468.159271 463.503845,470.693604 
	C460.576019,471.431152 458.119934,471.962036 455.663361,471.964050 
	C390.758118,472.017578 325.852875,472.016510 260.574829,471.971252 
	C256.548737,470.031891 253.667725,471.545898 250.687378,473.735535 
	C248.401749,473.308868 246.430893,473.020477 244.459854,473.019379 
	C179.600174,472.983917 114.740486,472.976044 49.880791,472.964081 
	C50.315918,470.088806 50.751045,467.213501 51.534164,464.150177 
z"/>
<path fill="#604238" opacity="1.000000" stroke="none" 
	d="
M417.898071,158.545227 
	C416.810059,157.864471 415.381531,156.916840 414.795227,155.595490 
	C405.921204,135.596527 395.208221,116.683372 381.173401,99.842819 
	C362.210205,77.088654 339.165863,59.801533 311.443329,48.975643 
	C291.800293,41.304878 271.359436,37.758118 250.414642,39.146561 
	C217.676559,41.316776 188.561798,53.152851 162.751556,73.593124 
	C138.916687,92.469032 121.476593,116.188034 108.017059,143.098862 
	C104.973503,149.184082 102.645416,155.624100 99.862137,161.844498 
	C99.073235,163.607605 97.839478,165.171677 96.481445,166.905029 
	C96.686859,160.229065 97.220566,153.475052 98.289391,146.298492 
	C100.298058,143.749680 102.062874,141.768036 103.201180,139.475342 
	C118.523605,108.613876 138.897049,82.052032 167.361893,61.988750 
	C202.900528,36.939552 242.018204,27.136248 284.896088,34.302883 
	C317.501221,39.752529 345.217377,55.572758 369.199341,77.861343 
	C384.371307,91.961990 396.852051,108.343712 406.878357,126.563126 
	C409.463196,131.260284 412.834045,135.524918 415.843842,139.988220 
	C416.545654,146.026993 417.247498,152.065750 417.898071,158.545227 
z"/>
<path fill="#66473C" opacity="1.000000" stroke="none" 
	d="
M407.840729,106.991272 
	C409.851959,113.728310 411.863190,120.465355 413.524536,127.539627 
	C411.725250,126.124916 409.971344,124.544502 408.872955,122.594795 
	C396.321533,100.315300 380.226135,80.857918 360.263397,65.047935 
	C325.844940,37.789402 286.975433,24.178360 242.476898,28.869324 
	C226.272430,30.577570 210.759857,34.396633 195.974762,41.056194 
	C158.324890,58.014591 130.229736,85.465492 109.153168,120.577919 
	C106.386665,125.186745 103.172043,129.526581 100.164986,133.991013 
	C102.218681,126.135933 104.272377,118.280853 106.960648,110.160271 
	C108.630249,108.894249 109.864761,108.032295 110.670441,106.872452 
	C123.232170,88.788948 137.429657,72.299957 154.818512,58.536640 
	C184.013397,35.428822 216.964600,22.156202 254.163345,21.308077 
	C268.253967,20.986814 282.791687,22.626051 296.488159,25.977089 
	C337.561035,36.026150 370.029785,59.620968 395.888153,92.734108 
	C399.702728,97.618942 403.848297,102.245316 407.840729,106.991272 
z"/>
<path fill="#BEE0FB" opacity="1.000000" stroke="none" 
	d="
M435.112579,428.957184 
	C440.356781,434.079987 445.600983,439.202789 450.552124,444.667847 
	C447.466766,445.340057 444.674774,445.953857 441.882019,445.957581 
	C396.898865,446.017578 351.915588,446.016449 306.932434,445.957947 
	C304.308350,445.954529 301.685059,445.344025 299.199341,444.706970 
	C302.556854,439.597931 305.776398,434.797974 309.464874,429.998413 
	C349.222504,429.999237 388.511292,430.018158 427.799927,429.955322 
	C430.238007,429.951447 432.675049,429.304779 435.112579,428.957184 
z"/>
<path fill="#6B4B40" opacity="1.000000" stroke="none" 
	d="
M115.879715,88.974091 
	C121.351196,80.385925 126.075111,71.190224 132.454727,63.340080 
	C144.551392,48.455101 159.564728,36.794441 176.970413,28.583006 
	C193.320221,20.869692 210.534836,15.683979 228.579956,14.086283 
	C241.916260,12.905501 255.363998,11.809903 268.709259,12.256242 
	C280.469543,12.649572 292.128174,15.491950 303.883392,16.781141 
	C318.263367,18.358187 331.476807,23.551941 343.998077,30.151217 
	C367.481781,42.528229 386.168060,60.058041 397.700134,84.580765 
	C395.748840,83.575523 393.976288,82.357887 392.433228,80.897713 
	C382.317383,71.325447 372.970764,60.773346 362.023987,52.279778 
	C336.599823,32.553230 307.954315,20.023968 275.516113,16.799654 
	C256.288177,14.888421 237.364014,15.966569 218.684067,20.672707 
	C196.963943,26.144777 177.169998,35.901966 159.103394,49.025391 
	C147.266876,57.623337 136.136612,67.067719 126.802902,78.511421 
	C123.640175,82.389114 119.547455,85.508293 115.879715,88.974091 
z"/>
<path fill="#BEE0FB" opacity="1.000000" stroke="none" 
	d="
M65.953125,439.888580 
	C71.360405,434.923309 76.767685,429.958069 82.919548,425.142700 
	C85.286903,425.529449 86.909538,425.971924 88.532478,425.973083 
	C126.374268,425.999939 164.216095,425.979004 202.341339,426.145508 
	C205.759079,431.213257 208.893387,436.102356 211.557281,440.993896 
	C164.766953,440.997589 118.446999,441.013062 72.127136,440.952911 
	C70.068672,440.950226 68.011108,440.259033 65.953125,439.888580 
z"/>
<path fill="#68483E" opacity="1.000000" stroke="none" 
	d="
M115.603363,89.174820 
	C119.547455,85.508293 123.640175,82.389114 126.802902,78.511421 
	C136.136612,67.067719 147.266876,57.623337 159.103394,49.025391 
	C177.169998,35.901966 196.963943,26.144777 218.684067,20.672707 
	C237.364014,15.966569 256.288177,14.888421 275.516113,16.799654 
	C307.954315,20.023968 336.599823,32.553230 362.023987,52.279778 
	C372.970764,60.773346 382.317383,71.325447 392.433228,80.897713 
	C393.976288,82.357887 395.748840,83.575523 397.767944,84.938354 
	C401.379059,92.062363 404.637512,99.153351 407.868347,106.617813 
	C403.848297,102.245316 399.702728,97.618942 395.888153,92.734108 
	C370.029785,59.620968 337.561035,36.026150 296.488159,25.977089 
	C282.791687,22.626051 268.253967,20.986814 254.163345,21.308077 
	C216.964600,22.156202 184.013397,35.428822 154.818512,58.536640 
	C137.429657,72.299957 123.232170,88.788948 110.670441,106.872452 
	C109.864761,108.032295 108.630249,108.894249 107.240906,109.929016 
	C109.700058,103.100685 112.513535,96.238106 115.603363,89.174820 
z"/>
<path fill="#5C3F35" opacity="1.000000" stroke="none" 
	d="
M345.998505,392.989807 
	C346.810547,391.664368 347.386536,390.093689 348.470337,389.050598 
	C362.748657,375.308044 376.362946,361.107971 386.304352,343.664581 
	C397.926025,323.272827 406.453705,301.819519 411.092010,278.799683 
	C411.687347,275.844879 413.122253,273.059296 414.512207,270.109192 
	C413.609955,283.777344 412.458313,297.541107 411.082245,311.282410 
	C410.248230,319.611084 409.066895,327.904938 407.609863,336.671539 
	C406.225067,338.204132 405.010925,339.141602 404.358368,340.375946 
	C395.808472,356.548340 386.020050,371.832458 373.403320,385.217407 
	C369.940491,388.891052 367.095703,393.147278 363.560181,397.127960 
	C357.434875,395.743134 351.716675,394.366486 345.998505,392.989807 
z"/>
<path fill="#5C3F35" opacity="1.000000" stroke="none" 
	d="
M99.096283,270.452942 
	C100.661766,274.217346 102.668983,278.304199 103.621468,282.623627 
	C110.761307,315.002502 124.175797,344.314301 146.022919,369.436981 
	C151.768799,376.044312 158.379105,381.898621 164.566330,388.124695 
	C165.732315,389.297974 166.774384,390.594391 167.669083,392.335327 
	C161.314362,394.144196 155.164185,395.451782 148.953171,396.430847 
	C146.155640,392.795135 143.276550,389.594421 140.708374,386.161102 
	C132.288345,374.904572 123.918831,363.608887 115.661377,352.232819 
	C112.315918,347.623840 109.309586,342.768738 106.148941,338.025635 
	C104.763702,326.450073 103.258568,314.887207 102.028198,303.295197 
	C100.883171,292.507324 100.030792,281.688416 99.096283,270.452942 
z"/>
<path fill="#9ACEFA" opacity="1.000000" stroke="none" 
	d="
M464.906311,484.557678 
	C399.383118,484.998077 333.933167,485.003510 268.483215,484.978455 
	C266.513794,484.977722 264.544525,484.658051 262.330750,483.850281 
	C262.740082,481.140228 263.393829,479.066956 264.513245,476.995544 
	C331.597412,476.997711 398.215881,476.998016 464.834381,476.998322 
	C464.882782,479.371613 464.931183,481.744934 464.906311,484.557678 
z"/>
<path fill="#63443A" opacity="1.000000" stroke="none" 
	d="
M99.970390,134.340042 
	C103.172043,129.526581 106.386665,125.186745 109.153168,120.577919 
	C130.229736,85.465492 158.324890,58.014591 195.974762,41.056194 
	C210.759857,34.396633 226.272430,30.577570 242.476898,28.869324 
	C286.975433,24.178360 325.844940,37.789402 360.263397,65.047935 
	C380.226135,80.857918 396.321533,100.315300 408.872955,122.594795 
	C409.971344,124.544502 411.725250,126.124916 413.505951,127.932663 
	C414.541138,131.712921 415.245087,135.437393 415.896423,139.575043 
	C412.834045,135.524918 409.463196,131.260284 406.878357,126.563126 
	C396.852051,108.343712 384.371307,91.961990 369.199341,77.861343 
	C345.217377,55.572758 317.501221,39.752529 284.896088,34.302883 
	C242.018204,27.136248 202.900528,36.939552 167.361893,61.988750 
	C138.897049,82.052032 118.523605,108.613876 103.201180,139.475342 
	C102.062874,141.768036 100.298058,143.749680 98.489815,145.932953 
	C98.695351,142.223022 99.235580,138.456039 99.970390,134.340042 
z"/>
<path fill="#CCE7FC" opacity="1.000000" stroke="none" 
	d="
M434.962402,428.635376 
	C432.675049,429.304779 430.238007,429.951447 427.799927,429.955322 
	C388.511292,430.018158 349.222504,429.999237 309.600586,429.680695 
	C312.501099,424.569000 315.734863,419.775482 319.352844,415.151428 
	C321.701904,415.546875 323.666351,415.965942 325.631561,415.969513 
	C350.296844,416.014191 374.962738,416.074921 399.627106,415.917603 
	C403.378418,415.893707 407.122833,414.786926 410.870422,414.180969 
	C418.851044,418.891815 426.831635,423.602692 434.962402,428.635376 
z"/>
<path fill="#B3DBFB" opacity="1.000000" stroke="none" 
	d="
M299.061401,445.016083 
	C301.685059,445.344025 304.308350,445.954529 306.932434,445.957947 
	C351.915588,446.016449 396.898865,446.017578 441.882019,445.957581 
	C444.674774,445.953857 447.466766,445.340057 450.688416,444.985809 
	C453.080109,447.722168 455.042480,450.482849 457.061188,453.600769 
	C392.907379,453.972198 328.697266,453.989502 264.487122,453.979095 
	C263.186096,453.978882 261.885162,453.655823 260.489868,452.958374 
	C261.597870,450.955566 262.800232,449.477783 264.470703,448.000000 
	C271.317261,447.987885 277.695679,447.975739 284.439697,448.034058 
	C291.555389,450.948181 294.338287,450.345276 299.061401,445.016083 
z"/>
<path fill="#9ACEFA" opacity="1.000000" stroke="none" 
	d="
M253.122467,484.954163 
	C185.442642,484.969025 117.762794,484.983856 49.624947,484.997864 
	C49.116512,482.952423 49.066082,480.907837 49.549301,478.431213 
	C116.694756,477.996399 183.306549,477.993591 249.956268,478.352844 
	C251.036957,480.794678 252.079712,482.874420 253.122467,484.954163 
z"/>
<path fill="#D6EBFB" opacity="1.000000" stroke="none" 
	d="
M410.561340,413.995789 
	C407.122833,414.786926 403.378418,415.893707 399.627106,415.917603 
	C374.962738,416.074921 350.296844,416.014191 325.631561,415.969513 
	C323.666351,415.965942 321.701904,415.546875 319.408630,414.804047 
	C321.725983,409.858917 324.371826,405.430695 327.277649,400.788269 
	C329.928162,397.457275 332.467377,394.361725 328.994873,390.404724 
	C334.387451,391.284668 339.779999,392.164642 345.585541,393.017212 
	C351.716675,394.366486 357.434875,395.743134 363.837311,397.369446 
	C369.305298,398.941711 374.089050,400.264343 379.168854,401.754974 
	C384.334747,403.553894 389.204559,405.184845 394.074371,406.815796 
	C399.466980,409.147400 404.859619,411.479004 410.561340,413.995789 
z"/>
<path fill="#D6EBFB" opacity="1.000000" stroke="none" 
	d="
M149.014023,396.759338 
	C155.164185,395.451782 161.314362,394.144196 167.800781,392.678223 
	C173.801880,391.656372 179.466705,390.792908 185.396759,390.276611 
	C180.831497,394.753571 184.452011,397.808655 187.034912,401.347961 
	C189.401443,405.765930 191.714920,409.838409 193.721649,414.197449 
	C191.453278,414.656006 189.491882,414.975098 187.530045,414.977722 
	C162.307419,415.011444 137.084503,415.049957 111.862282,414.943817 
	C108.260750,414.928680 104.662399,414.157776 101.062576,413.736664 
	C106.771622,411.155640 112.480667,408.574585 118.945694,405.940186 
	C124.842972,404.120392 129.984268,402.353943 135.522537,400.502258 
	C140.284348,399.197815 144.649185,397.978577 149.014023,396.759338 
z"/>
<path fill="#B9DDFB" opacity="1.000000" stroke="none" 
	d="
M65.633934,440.021057 
	C68.011108,440.259033 70.068672,440.950226 72.127136,440.952911 
	C118.446999,441.013062 164.766953,440.997589 211.808746,441.201843 
	C214.026611,443.575317 215.522629,445.743317 216.713364,448.198517 
	C215.105499,448.657043 213.802979,448.977570 212.500290,448.978271 
	C163.208755,449.003754 113.917183,449.009979 64.625694,448.953217 
	C63.067875,448.951416 61.510845,448.259613 59.953457,447.889465 
	C61.740559,445.310822 63.527653,442.732178 65.633934,440.021057 
z"/>
<path fill="#CCE7FC" opacity="1.000000" stroke="none" 
	d="
M100.807312,413.841766 
	C104.662399,414.157776 108.260750,414.928680 111.862282,414.943817 
	C137.084503,415.049957 162.307419,415.011444 187.530045,414.977722 
	C189.491882,414.975098 191.453278,414.656006 194.010651,414.379303 
	C197.090256,418.171997 199.574097,422.069427 202.057922,425.966858 
	C164.216095,425.979004 126.374268,425.999939 88.532478,425.973083 
	C86.909538,425.971924 85.286903,425.529449 83.273758,425.122375 
	C88.772949,421.283783 94.662498,417.615326 100.807312,413.841766 
z"/>
<path fill="#B3DBFB" opacity="1.000000" stroke="none" 
	d="
M59.633324,448.023315 
	C61.510845,448.259613 63.067875,448.951416 64.625694,448.953217 
	C113.917183,449.009979 163.208755,449.003754 212.500290,448.978271 
	C213.802979,448.977570 215.105499,448.657043 217.080688,448.283081 
	C222.471191,450.903320 226.828705,450.284363 230.786011,446.609985 
	C231.963654,445.516541 232.950165,444.217224 234.488831,443.009155 
	C240.054062,443.044434 245.154709,443.082764 250.216675,443.526001 
	C249.491028,447.768951 250.784332,450.757568 254.029037,452.909180 
	C251.970398,453.273193 249.912033,453.953491 247.853073,453.955292 
	C184.262558,454.011017 120.671959,454.000275 56.623219,453.998993 
	C57.214443,452.051147 58.263821,450.104126 59.633324,448.023315 
z"/>
<path fill="#9ED1FA" opacity="1.000000" stroke="none" 
	d="
M464.908295,476.608551 
	C398.215881,476.998016 331.597412,476.997711 264.366577,476.702759 
	C262.818695,474.947021 261.883148,473.485870 260.947601,472.024750 
	C325.852875,472.016510 390.758118,472.017578 455.663361,471.964050 
	C458.119934,471.962036 460.576019,471.431152 463.433594,471.072510 
	C464.217255,472.738495 464.599731,474.478638 464.908295,476.608551 
z"/>
<path fill="#9ED1FA" opacity="1.000000" stroke="none" 
	d="
M249.918365,477.990784 
	C183.306549,477.993591 116.694756,477.996399 49.624943,477.998718 
	C49.175884,476.443390 49.184834,474.888519 49.537289,473.148865 
	C114.740486,472.976044 179.600174,472.983917 244.459854,473.019379 
	C246.430893,473.020477 248.401749,473.308868 250.641083,474.077271 
	C250.579117,475.791107 250.248734,476.890930 249.918365,477.990784 
z"/>
<path fill="#66473C" opacity="1.000000" stroke="none" 
	d="
M378.872772,401.587006 
	C374.089050,400.264343 369.305298,398.941711 364.244446,397.377625 
	C367.095703,393.147278 369.940491,388.891052 373.403320,385.217407 
	C386.020050,371.832458 395.808472,356.548340 404.358368,340.375946 
	C405.010925,339.141602 406.225067,338.204132 407.513367,337.076508 
	C406.386108,347.052246 404.945709,357.083405 403.440277,367.104828 
	C403.176361,368.861786 402.639679,370.577820 401.705292,372.715088 
	C396.797485,378.393921 392.311127,383.589722 388.062531,388.973206 
	C384.842163,393.053833 381.924927,397.373627 378.872772,401.587006 
z"/>
<path fill="#66473C" opacity="1.000000" stroke="none" 
	d="
M148.953171,396.430847 
	C144.649185,397.978577 140.284348,399.197815 135.472504,400.116089 
	C134.873260,399.343262 134.838470,398.779419 134.551529,398.413055 
	C128.133774,390.217712 121.725746,382.013855 115.196106,373.908112 
	C114.456367,372.989807 113.002464,372.646851 111.879730,372.037079 
	C110.256676,363.242920 108.614517,354.452179 107.023788,345.652191 
	C106.617470,343.404358 106.373993,341.127136 106.102318,338.444519 
	C109.309586,342.768738 112.315918,347.623840 115.661377,352.232819 
	C123.918831,363.608887 132.288345,374.904572 140.708374,386.161102 
	C143.276550,389.594421 146.155640,392.795135 148.953171,396.430847 
z"/>
<path fill="#6B4B40" opacity="1.000000" stroke="none" 
	d="
M379.168854,401.754974 
	C381.924927,397.373627 384.842163,393.053833 388.062531,388.973206 
	C392.311127,383.589722 396.797485,378.393921 401.513031,373.065613 
	C399.752075,382.641998 397.669220,392.272308 395.556885,401.896118 
	C395.242401,403.328979 394.789093,404.731323 394.237183,406.481812 
	C389.204559,405.184845 384.334747,403.553894 379.168854,401.754974 
z"/>
<path fill="#6B4B40" opacity="1.000000" stroke="none" 
	d="
M111.925323,372.457947 
	C113.002464,372.646851 114.456367,372.989807 115.196106,373.908112 
	C121.725746,382.013855 128.133774,390.217712 134.551529,398.413055 
	C134.838470,398.779419 134.873260,399.343262 135.075531,400.201294 
	C129.984268,402.353943 124.842972,404.120392 119.322380,405.866058 
	C117.202950,398.059845 115.427254,390.282166 113.739944,382.485352 
	C113.051582,379.304504 112.554840,376.082214 111.925323,372.457947 
z"/>
<path fill="#FEC928" opacity="1.000000" stroke="none" 
	d="
M204.046402,370.828278 
	C185.827835,359.694672 169.849548,346.090210 157.058258,328.844910 
	C141.800613,308.274414 131.745056,285.377350 127.756668,260.186920 
	C126.606529,252.922745 128.812866,245.017319 130.070892,237.504776 
	C132.605133,222.371353 136.196625,207.491867 143.262909,193.712036 
	C147.721146,185.018127 154.167511,179.456924 164.276260,177.066147 
	C213.225739,165.489365 257.894958,144.791061 297.013306,112.775063 
	C297.392609,112.464630 297.848206,112.247452 298.626495,111.764305 
	C300.534363,114.852287 302.308136,117.977730 304.321686,120.940208 
	C315.910370,137.990265 331.421051,151.100159 347.498596,163.607513 
	C352.886414,167.798920 358.315491,171.981720 364.039307,175.683533 
	C369.103210,178.958572 372.708710,183.277695 373.848419,188.978333 
	C377.136322,205.423752 380.172729,221.927078 382.874878,238.478363 
	C383.997009,245.351730 383.779938,252.432968 384.601379,259.368805 
	C385.745148,269.026337 382.611511,277.802185 379.451813,286.546295 
	C366.400269,322.664825 343.573456,350.778931 309.811676,370.656799 
	C303.952545,373.686676 298.651031,376.364532 292.947632,379.066620 
	C290.648163,379.693237 288.743958,380.275665 286.854034,380.901367 
	C272.956757,385.502258 258.777008,387.778015 244.243286,384.951324 
	C236.296463,383.405792 228.509338,381.039062 220.397812,378.823914 
	C214.779083,376.012909 209.412750,373.420593 204.046402,370.828278 
M257.472351,336.000885 
	C264.248932,334.491608 271.511078,334.040039 277.680420,331.207947 
	C285.564758,327.588593 292.773865,322.333954 299.856140,317.206818 
	C303.012665,314.921722 303.773438,310.872040 301.288361,307.324036 
	C298.895447,303.907654 295.535065,303.568176 291.525482,304.706665 
	C283.751190,306.914124 275.940552,309.604034 267.975830,310.398346 
	C253.209839,311.870972 238.351181,311.732727 224.319656,305.613800 
	C219.104370,303.339508 215.082947,303.780853 212.688751,307.268524 
	C210.288925,310.764374 211.042740,314.945709 215.463516,318.701630 
	C227.306122,328.763184 240.800232,335.105011 257.472351,336.000885 
M323.252045,256.826355 
	C324.717224,256.534119 326.217865,256.359680 327.641907,255.930862 
	C338.053284,252.795563 343.949158,241.179413 340.705078,230.280350 
	C337.598297,219.842575 326.599915,213.889786 316.262756,217.051147 
	C307.260681,219.804199 301.437378,229.066116 302.548492,238.863632 
	C303.731171,249.291977 311.305817,256.145752 323.252045,256.826355 
M180.010574,220.407013 
	C178.956558,221.466721 177.799057,222.442917 176.865631,223.599899 
	C171.500443,230.250031 170.949417,240.234650 175.485260,247.472351 
	C179.868759,254.466965 187.934799,258.065247 195.601715,256.446320 
	C203.666840,254.743317 209.636978,248.798111 211.101151,240.747696 
	C212.671143,232.115524 210.231796,224.782806 202.943039,219.711273 
	C195.596848,214.599777 187.989090,214.955933 180.010574,220.407013 
M215.027649,194.417252 
	C200.538452,185.412628 179.547897,185.841232 167.504105,195.576950 
	C164.349457,198.127029 159.975632,200.993149 162.661819,205.778397 
	C165.313507,210.502151 169.835968,208.499374 173.800049,206.989227 
	C185.992676,202.344284 198.182281,202.387192 210.374161,207.025253 
	C211.923126,207.614517 213.642975,208.661224 215.089401,208.403946 
	C217.341949,208.003265 220.245255,207.203308 221.326675,205.556992 
	C222.196289,204.233124 221.239334,201.151764 220.238724,199.315720 
	C219.259720,197.519333 217.200150,196.311829 215.027649,194.417252 
M348.582367,208.127319 
	C352.994324,205.085480 353.429688,202.381973 349.635681,198.490387 
	C339.879852,188.483627 327.585358,186.924103 314.540100,188.593750 
	C306.390076,189.636841 299.017822,192.711212 293.774323,199.306076 
	C292.560730,200.832428 291.798584,204.185837 292.658112,205.519409 
	C293.723328,207.172134 296.620422,207.930328 298.868988,208.422592 
	C300.136597,208.700089 301.723419,207.748245 303.111755,207.209305 
	C315.610077,202.357254 328.079254,202.330765 340.637085,207.089355 
	C342.880615,207.939484 345.438385,207.960266 348.582367,208.127319 
M260.478882,272.962311 
	C255.148544,272.964264 249.816162,272.875763 244.488449,272.994904 
	C239.661530,273.102844 237.301437,276.591095 239.559799,280.699646 
	C243.284042,287.475098 249.415970,290.118896 257.024750,290.113403 
	C264.637329,290.107910 270.761749,287.440521 274.464020,280.656647 
	C276.699432,276.560608 274.300110,273.150238 269.462006,272.983856 
	C266.799927,272.892273 264.132202,272.964081 260.478882,272.962311 
z"/>
<path fill="#EBEBEA" opacity="1.000000" stroke="none" 
	d="
M328.669250,390.263428 
	C332.467377,394.361725 329.928162,397.457275 326.862549,400.723145 
	C324.083832,400.581207 321.982483,400.060181 319.876129,400.039093 
	C310.645874,399.946594 301.412842,400.079193 292.184113,399.929749 
	C290.373871,399.900421 288.578003,398.983002 286.878357,398.162048 
	C289.011353,393.568207 291.041473,389.287506 293.535767,385.004639 
	C301.288300,385.001465 308.579163,385.102722 315.863312,384.927185 
	C317.677094,384.883453 319.469269,383.945740 321.271393,383.418945 
	C323.628815,385.653351 325.986206,387.887726 328.669250,390.263428 
z"/>
<path fill="#EBEBEA" opacity="1.000000" stroke="none" 
	d="
M186.981857,401.002441 
	C184.452011,397.808655 180.831497,394.753571 185.825073,390.325134 
	C187.243149,388.834869 188.498123,387.643250 190.394379,386.313660 
	C201.188217,386.390289 211.340759,386.604889 221.666885,387.113403 
	C224.005142,391.557983 226.169830,395.708679 227.846100,399.895477 
	C220.607239,399.954010 213.853531,399.854492 207.107224,400.033142 
	C200.394913,400.210846 193.690002,400.667908 186.981857,401.002441 
z"/>
<path fill="#E2E1E0" opacity="1.000000" stroke="none" 
	d="
M221.493301,386.819519 
	C211.340759,386.604889 201.188217,386.390289 190.641235,386.099274 
	C194.675369,381.110962 199.103958,376.199066 203.789474,371.057709 
	C209.412750,373.420593 214.779083,376.012909 220.406570,379.261658 
	C220.942917,382.218536 221.218109,384.519043 221.493301,386.819519 
z"/>
<path fill="#E2E1E0" opacity="1.000000" stroke="none" 
	d="
M321.153931,383.122009 
	C319.469269,383.945740 317.677094,384.883453 315.863312,384.927185 
	C308.579163,385.102722 301.288300,385.001465 293.492249,384.579895 
	C293.106201,382.452301 293.227844,380.747345 293.349487,379.042419 
	C298.651031,376.364532 303.952545,373.686676 309.603882,370.918610 
	C313.647949,374.827301 317.342194,378.826202 321.153931,383.122009 
z"/>
<path fill="#68B7F6" opacity="1.000000" stroke="none" 
	d="
M249.956284,478.352844 
	C250.248734,476.890930 250.579117,475.791107 250.955780,474.349518 
	C253.667725,471.545898 256.548737,470.031891 260.574829,471.971252 
	C261.883148,473.485870 262.818695,474.947021 263.900879,476.700897 
	C263.393829,479.066956 262.740082,481.140228 262.019592,483.566956 
	C259.284393,484.267548 256.615936,484.614746 253.534973,484.958069 
	C252.079712,482.874420 251.036957,480.794678 249.956284,478.352844 
z"/>
<path fill="#68B7F6" opacity="1.000000" stroke="none" 
	d="
M254.452972,452.930573 
	C250.784332,450.757568 249.491028,447.768951 250.473602,443.315491 
	C253.743027,441.553162 256.716858,440.406281 259.919312,439.518829 
	C261.432831,442.518860 262.717682,445.259430 264.002563,448.000000 
	C262.800232,449.477783 261.597870,450.955566 260.183411,452.671265 
	C258.273132,452.923462 256.575012,452.937714 254.452972,452.930573 
z"/>
<path fill="#F4F4F4" opacity="1.000000" stroke="none" 
	d="
M187.034912,401.347961 
	C193.690002,400.667908 200.394913,400.210846 207.107224,400.033142 
	C213.853531,399.854492 220.607239,399.954010 228.135162,400.043274 
	C233.278778,403.093719 237.265854,407.321259 242.079910,408.737335 
	C258.642395,413.609131 274.315979,412.473755 286.775513,398.475159 
	C288.578003,398.983002 290.373871,399.900421 292.184113,399.929749 
	C301.412842,400.079193 310.645874,399.946594 319.876129,400.039093 
	C321.982483,400.060181 324.083832,400.581207 326.602570,400.937317 
	C324.371826,405.430695 321.725983,409.858917 319.024353,414.634552 
	C315.734863,419.775482 312.501099,424.569000 309.131653,429.680298 
	C305.776398,434.797974 302.556854,439.597931 299.199341,444.706970 
	C294.338287,450.345276 291.555389,450.948181 284.272247,447.742188 
	C281.147461,444.258026 278.555756,441.136200 275.821350,437.712158 
	C269.550934,429.916016 263.423187,422.422119 256.889008,414.431213 
	C248.890930,424.428833 241.457596,433.720520 234.024261,443.012207 
	C232.950165,444.217224 231.963654,445.516541 230.786011,446.609985 
	C226.828705,450.284363 222.471191,450.903320 217.385956,447.995880 
	C215.522629,445.743317 214.026611,443.575317 212.279144,441.199371 
	C208.893387,436.102356 205.759079,431.213257 202.341354,426.145508 
	C199.574097,422.069427 197.090256,418.171997 194.317413,414.092712 
	C191.714920,409.838409 189.401443,405.765930 187.034912,401.347961 
z"/>
<path fill="#B9DDFB" opacity="1.000000" stroke="none" 
	d="
M275.964020,438.014404 
	C278.555756,441.136200 281.147461,444.258026 283.906616,447.671722 
	C277.695679,447.975739 271.317261,447.987885 264.470703,448.000000 
	C262.717682,445.259430 261.432831,442.518860 260.321716,439.304047 
	C265.651642,438.558014 270.807831,438.286194 275.964020,438.014404 
z"/>
<path fill="#BEE0FB" opacity="1.000000" stroke="none" 
	d="
M275.821350,437.712158 
	C270.807831,438.286194 265.651642,438.558014 260.093079,439.044586 
	C256.716858,440.406281 253.743027,441.553162 250.512283,442.910583 
	C245.154709,443.082764 240.054062,443.044434 234.488831,443.009155 
	C241.457596,433.720520 248.890930,424.428833 256.889008,414.431213 
	C263.423187,422.422119 269.550934,429.916016 275.821350,437.712158 
z"/>
<path fill="#7B5648" opacity="1.000000" stroke="none" 
	d="
M257.008270,336.000427 
	C240.800232,335.105011 227.306122,328.763184 215.463516,318.701630 
	C211.042740,314.945709 210.288925,310.764374 212.688751,307.268524 
	C215.082947,303.780853 219.104370,303.339508 224.319656,305.613800 
	C238.351181,311.732727 253.209839,311.870972 267.975830,310.398346 
	C275.940552,309.604034 283.751190,306.914124 291.525482,304.706665 
	C295.535065,303.568176 298.895447,303.907654 301.288361,307.324036 
	C303.773438,310.872040 303.012665,314.921722 299.856140,317.206818 
	C292.773865,322.333954 285.564758,327.588593 277.680420,331.207947 
	C271.511078,334.040039 264.248932,334.491608 257.008270,336.000427 
z"/>
<path fill="#E59702" opacity="1.000000" stroke="none" 
	d="
M286.878357,398.162048 
	C274.315979,412.473755 258.642395,413.609131 242.079910,408.737335 
	C237.265854,407.321259 233.278778,403.093719 228.623566,400.007141 
	C226.169830,395.708679 224.005142,391.557983 221.666885,387.113403 
	C221.218109,384.519043 220.942917,382.218536 220.658966,379.480347 
	C228.509338,381.039062 236.296463,383.405792 244.243286,384.951324 
	C258.777008,387.778015 272.956757,385.502258 286.854034,380.901367 
	C288.743958,380.275665 290.648163,379.693237 292.947632,379.066620 
	C293.227844,380.747345 293.106201,382.452301 293.028076,384.582001 
	C291.041473,389.287506 289.011353,393.568207 286.878357,398.162048 
z"/>
<path fill="#424140" opacity="1.000000" stroke="none" 
	d="
M322.833618,256.833038 
	C311.305817,256.145752 303.731171,249.291977 302.548492,238.863632 
	C301.437378,229.066116 307.260681,219.804199 316.262756,217.051147 
	C326.599915,213.889786 337.598297,219.842575 340.705078,230.280350 
	C343.949158,241.179413 338.053284,252.795563 327.641907,255.930862 
	C326.217865,256.359680 324.717224,256.534119 322.833618,256.833038 
z"/>
<path fill="#424140" opacity="1.000000" stroke="none" 
	d="
M180.301880,220.184326 
	C187.989090,214.955933 195.596848,214.599777 202.943039,219.711273 
	C210.231796,224.782806 212.671143,232.115524 211.101151,240.747696 
	C209.636978,248.798111 203.666840,254.743317 195.601715,256.446320 
	C187.934799,258.065247 179.868759,254.466965 175.485260,247.472351 
	C170.949417,240.234650 171.500443,230.250031 176.865631,223.599899 
	C177.799057,222.442917 178.956558,221.466721 180.301880,220.184326 
z"/>
<path fill="#714F40" opacity="1.000000" stroke="none" 
	d="
M215.321259,194.631546 
	C217.200150,196.311829 219.259720,197.519333 220.238724,199.315720 
	C221.239334,201.151764 222.196289,204.233124 221.326675,205.556992 
	C220.245255,207.203308 217.341949,208.003265 215.089401,208.403946 
	C213.642975,208.661224 211.923126,207.614517 210.374161,207.025253 
	C198.182281,202.387192 185.992676,202.344284 173.800049,206.989227 
	C169.835968,208.499374 165.313507,210.502151 162.661819,205.778397 
	C159.975632,200.993149 164.349457,198.127029 167.504105,195.576950 
	C179.547897,185.841232 200.538452,185.412628 215.321259,194.631546 
z"/>
<path fill="#714F40" opacity="1.000000" stroke="none" 
	d="
M348.216736,208.245667 
	C345.438385,207.960266 342.880615,207.939484 340.637085,207.089355 
	C328.079254,202.330765 315.610077,202.357254 303.111755,207.209305 
	C301.723419,207.748245 300.136597,208.700089 298.868988,208.422592 
	C296.620422,207.930328 293.723328,207.172134 292.658112,205.519409 
	C291.798584,204.185837 292.560730,200.832428 293.774323,199.306076 
	C299.017822,192.711212 306.390076,189.636841 314.540100,188.593750 
	C327.585358,186.924103 339.879852,188.483627 349.635681,198.490387 
	C353.429688,202.381973 352.994324,205.085480 348.216736,208.245667 
z"/>
<path fill="#E59702" opacity="1.000000" stroke="none" 
	d="
M260.972961,272.962280 
	C264.132202,272.964081 266.799927,272.892273 269.462006,272.983856 
	C274.300110,273.150238 276.699432,276.560608 274.464020,280.656647 
	C270.761749,287.440521 264.637329,290.107910 257.024750,290.113403 
	C249.415970,290.118896 243.284042,287.475098 239.559799,280.699646 
	C237.301437,276.591095 239.661530,273.102844 244.488449,272.994904 
	C249.816162,272.875763 255.148544,272.964264 260.972961,272.962280 
z"/>
</svg>